<svg width="50" height="50" viewBox="0 0 50 50" fill="none" xmlns="http://www.w3.org/2000/svg">
<path d="M22.136 0.165858C10.7985 1.45343 1.55997 10.8284 0.192225 22.4293C0.147354 22.7937 0.110792 23.1591 0.08254 23.5244C0.0534567 23.8906 0.031852 24.2567 0.0185568 24.6229C0.00443069 24.9899 -0.00138613 25.357 0.00027588 25.724C0.00193768 26.091 0.0110783 26.4572 0.0285282 26.8242C0.0451472 27.1904 0.0700757 27.5566 0.102483 27.9219C0.13489 28.2881 0.174775 28.6525 0.22214 29.0162C0.269504 29.3798 0.325178 29.7425 0.387499 30.1036C0.450651 30.4647 0.520451 30.8249 0.59856 31.1834C0.67667 31.5411 0.761427 31.8979 0.854493 32.2521C0.946729 32.6064 1.04727 32.9589 1.15447 33.3089C1.26166 33.6589 1.37633 34.0064 1.49848 34.3521C1.62063 34.697 1.74943 35.0393 1.8857 35.3782C2.02198 35.718 2.16573 36.0544 2.31614 36.3873C2.46654 36.7203 2.62359 37.0499 2.78728 37.376C2.95181 37.7022 3.12216 38.0249 3.29998 38.3434C3.4778 38.6619 3.66228 38.977 3.85256 39.2869C4.04368 39.5978 4.24062 39.9043 4.4442 40.2058C4.64778 40.5081 4.85718 40.8053 5.07323 41.0982C5.28928 41.3903 5.51114 41.6781 5.73965 41.9617C5.96733 42.2444 6.20166 42.522 6.44097 42.7945C6.68112 43.0679 6.92625 43.3353 7.1772 43.5967C7.42731 43.859 7.68408 44.1153 7.94583 44.3657C8.20674 44.616 8.47348 44.8613 8.7452 45.1006C9.01692 45.339 9.29363 45.5724 9.57532 45.7989C9.85701 46.0254 10.1429 46.246 10.4337 46.4605C10.7245 46.6751 11.0195 46.8821 11.3195 47.0839C11.6186 47.2849 11.9219 47.4799 12.2294 47.6672C12.5377 47.8554 12.8484 48.0368 13.1634 48.2114C13.4791 48.3851 13.7974 48.5529 14.1198 48.7129C14.4422 48.873 14.7671 49.0263 15.0962 49.1719C15.4244 49.3184 15.7559 49.4572 16.09 49.5884C16.4248 49.7195 16.7614 49.8438 17.1012 49.9605C18.3527 50.1657 18.7523 49.3712 18.7523 48.6797V44.3487C11.8272 45.89 10.3523 40.9168 10.3523 40.9168C9.20555 37.944 7.57771 37.1503 7.57771 37.1503C5.30174 35.5613 7.75471 35.6133 7.75471 35.6133C10.2534 35.7946 11.5787 38.2523 11.5787 38.2523C13.7542 42.1465 17.4286 40.9935 18.8529 40.3786C19.0781 38.713 19.7378 37.5855 20.4284 36.9451C14.8693 36.3047 9.05182 34.1009 9.05182 24.341C9.05182 21.4977 10.0024 19.2172 11.6269 17.3982C11.3777 16.7578 10.501 14.0933 11.8762 10.635C11.8762 10.635 13.9769 9.94187 18.7523 13.2485C19.7711 12.9675 20.804 12.7555 21.8493 12.6141C22.8955 12.4719 23.9466 12.4012 25.0019 12.4012C26.0564 12.4012 27.1075 12.4719 28.1537 12.6141C29.199 12.7555 30.2319 12.9675 31.2507 13.2485C36.0295 9.94187 38.1268 10.635 38.1268 10.635C39.5003 14.0933 38.6254 16.7578 38.3761 17.3982C40.0006 19.212 40.9512 21.4977 40.9512 24.341C40.9512 34.1264 35.1005 36.2792 29.5273 36.9196C30.4264 37.7141 31.2507 39.2776 31.2507 41.6586V48.6797C31.2507 49.3712 31.6512 50.1904 32.9267 49.9605C33.289 49.8362 33.6488 49.7033 34.0053 49.562C34.3617 49.4206 34.7149 49.2707 35.0647 49.1132C35.4146 48.9548 35.7602 48.7887 36.1026 48.615C36.4449 48.4404 36.7831 48.2582 37.1172 48.0683C37.4512 47.8784 37.7811 47.6808 38.1068 47.4756C38.4317 47.2695 38.7525 47.0566 39.0682 46.8361C39.384 46.6155 39.6948 46.3873 40.0006 46.1523C40.3064 45.9172 40.6063 45.6754 40.9013 45.4259C41.1963 45.1764 41.4855 44.9201 41.7688 44.6578C42.0522 44.3946 42.3297 44.1255 42.6006 43.8496C42.8723 43.5737 43.1374 43.2919 43.3958 43.0032C43.6543 42.7153 43.9069 42.4207 44.152 42.121C44.398 41.8203 44.6365 41.5146 44.8683 41.203C45.1001 40.8921 45.3253 40.5754 45.543 40.2535C45.7607 39.9316 45.971 39.6046 46.1737 39.2725C46.3773 38.9412 46.5726 38.6048 46.7604 38.2633C46.949 37.9227 47.1293 37.5778 47.3021 37.2278C47.4741 36.8787 47.6395 36.5253 47.7957 36.1676C47.9528 35.8108 48.1015 35.4498 48.2419 35.0861C48.3832 34.7217 48.5153 34.3546 48.64 33.9842C48.7638 33.6138 48.8801 33.2408 48.9873 32.8644C49.0953 32.4889 49.1942 32.1108 49.2848 31.7301C49.3762 31.3495 49.4576 30.9671 49.5316 30.583C49.6055 30.199 49.6703 29.8124 49.7269 29.4258C49.7825 29.0383 49.8307 28.6491 49.8698 28.26C49.9088 27.8699 49.9387 27.4799 49.9604 27.0891C49.982 26.6973 49.9944 26.3065 49.9986 25.9147C50.0027 25.523 49.9977 25.1313 49.9844 24.7396C49.9712 24.3487 49.9487 23.9578 49.918 23.567C49.8864 23.177 49.8473 22.7878 49.7983 22.3986C49.7501 22.0103 49.6936 21.6228 49.628 21.2371C49.5615 20.8513 49.4875 20.4673 49.4044 20.0849C49.3222 19.7026 49.2308 19.3228 49.1311 18.9447C49.0305 18.5666 48.9225 18.191 48.8062 17.818C48.689 17.445 48.5644 17.0746 48.4314 16.7076C48.2976 16.3406 48.1564 15.9769 48.0068 15.6159C47.858 15.2557 47.7002 14.8989 47.5348 14.5455C47.3694 14.1929 47.1958 13.8438 47.0155 13.4989C46.8343 13.154 46.6457 12.8134 46.4496 12.477C46.2527 12.1406 46.0491 11.8094 45.838 11.4832C45.6269 11.1562 45.4092 10.8352 45.1832 10.5184C44.958 10.2024 44.7254 9.89163 44.486 9.58591C44.2467 9.28105 44.0008 8.9813 43.7482 8.68751C43.4956 8.39372 43.2363 8.10589 42.9712 7.82402C42.7053 7.54215 42.4336 7.26709 42.1552 6.99799C41.8777 6.72975 41.5943 6.46747 41.3043 6.212C41.0143 5.95567 40.7193 5.70702 40.4185 5.46602C40.1177 5.22418 39.812 4.98914 39.5012 4.76178C39.1896 4.53441 38.8738 4.3147 38.5522 4.10266C38.2315 3.88977 37.9058 3.68454 37.5759 3.48783C37.2451 3.29026 36.9111 3.10122 36.5721 2.91983C36.233 2.73845 35.8907 2.56473 35.5442 2.39952C35.1977 2.23347 34.8479 2.07678 34.4947 1.92775C34.1407 1.77873 33.7842 1.63822 33.4244 1.50623C33.0646 1.37338 32.7023 1.2499 32.3367 1.13494C31.9719 1.01913 31.6038 0.912683 31.234 0.814753C30.8643 0.716823 30.492 0.627408 30.1181 0.54736C29.7442 0.466461 29.3686 0.394929 28.9913 0.331913C28.6141 0.269749 28.2351 0.215248 27.8554 0.170115C27.4757 0.124982 27.0951 0.0892163 26.7145 0.0619661C26.3331 0.0347159 25.9509 0.016833 25.5695 0.00746569C25.1872 -0.00190141 24.805 -0.00275319 24.4227 0.00661412C24.0405 0.0151297 23.6591 0.0321612 23.2777 0.0594114C22.8963 0.0858099 22.5157 0.121576 22.136 0.165858Z" fill="#FFA132"/>
</svg>
