<svg width="50" height="50" viewBox="0 0 50 50" fill="none" xmlns="http://www.w3.org/2000/svg">
<mask id="mask0_1_162" style="mask-type:luminance" maskUnits="userSpaceOnUse" x="0" y="0" width="50" height="50">
<path d="M0 0H50V50H0V0Z" fill="white"/>
</mask>
<g mask="url(#mask0_1_162)">
<path d="M14.7015 0C6.63158 0 0 6.62314 0 14.7015V35.2985C0 43.3684 6.62314 50 14.7015 50H35.2985C43.3684 50 50 43.3769 50 35.2985V14.7015C50 6.63158 43.3769 0 35.2985 0H14.7015ZM14.7015 4.54524H35.2985C40.918 4.54524 45.4548 9.08203 45.4548 14.7015V35.2985C45.4548 40.918 40.918 45.4548 35.2985 45.4548H14.7015C9.08203 45.4548 4.54524 40.918 4.54524 35.2985V14.7015C4.54524 9.08203 9.08203 4.54524 14.7015 4.54524ZM38.4235 9.51726C37.2782 9.51726 36.3637 10.4317 36.3637 11.5765C36.3637 12.7218 37.2782 13.6363 38.4235 13.6363C39.5683 13.6363 40.4827 12.7218 40.4827 11.5765C40.4827 10.4317 39.5683 9.51726 38.4235 9.51726ZM25 11.3637C17.4979 11.3637 11.3637 17.4979 11.3637 25C11.3637 32.502 17.4979 38.6363 25 38.6363C32.502 38.6363 38.6363 32.502 38.6363 25C38.6363 17.4979 32.502 11.3637 25 11.3637ZM25 15.9089C30.0516 15.9089 34.0911 19.9484 34.0911 25C34.0911 30.0516 30.0516 34.0911 25 34.0911C19.9484 34.0911 15.9089 30.0516 15.9089 25C15.9089 19.9484 19.9484 15.9089 25 15.9089Z" fill="#FFA132"/>
</g>
</svg>
