<svg width="50" height="50" viewBox="0 0 50 50" fill="none" xmlns="http://www.w3.org/2000/svg">
<mask id="mask0_1_163" style="mask-type:luminance" maskUnits="userSpaceOnUse" x="0" y="0" width="50" height="50">
<path d="M0 0H50V50H0V0Z" fill="white"/>
</mask>
<g mask="url(#mask0_1_163)">
<path d="M39.7642 0H10.2358C4.59165 0 0 4.59165 0 10.2358V39.7642C0 45.4083 4.59165 50 10.2358 50H39.7642C45.4083 50 50 45.4083 50 39.7642V10.2358C50 4.59165 45.4083 0 39.7642 0ZM47.0589 39.7642C47.0589 43.7862 43.7862 47.0589 39.7642 47.0589H10.2358C6.21383 47.0589 2.94114 43.7862 2.94114 39.7642V10.2358C2.94114 6.21383 6.21383 2.94114 10.2358 2.94114H39.7642C43.7862 2.94114 47.0589 6.21383 47.0589 10.2358V39.7642Z" fill="#FFA132"/>
</g>
<path d="M15.1958 19.8652H9.31353C8.50154 19.8652 7.84326 20.5235 7.84326 21.3361V40.5026C7.84326 41.3146 8.50154 41.9729 9.31353 41.9729H15.1958C16.0084 41.9729 16.6667 41.3146 16.6667 40.5026V21.3361C16.6667 20.5235 16.0084 19.8652 15.1958 19.8652ZM13.7255 39.0317H10.7844V22.8063H13.7255V39.0317Z" fill="#FFA132"/>
<path d="M28.4312 22.4862V21.3361C28.4312 20.5235 27.7729 19.8652 26.9609 19.8652H21.0787C20.2661 19.8652 19.6078 20.5235 19.6078 21.3361V40.5026C19.6078 41.3146 20.2661 41.9729 21.0787 41.9729H26.9609C27.7729 41.9729 28.4312 41.3146 28.4312 40.5026V33.4925C28.4312 32.141 29.5307 31.0414 30.8823 31.0414C32.2338 31.0414 33.3333 32.141 33.3333 33.4925V40.5026C33.3333 41.3146 33.9916 41.9729 34.8042 41.9729H40.6865C41.4985 41.9729 42.1567 41.3146 42.1567 40.5026V33.4925C42.1567 26.3099 35.4787 20.9153 28.4312 22.4862ZM39.2156 39.0317H36.2745V33.4925C36.2745 30.5194 33.8554 28.1003 30.8823 28.1003C27.9092 28.1003 25.4901 30.5194 25.4901 33.4925V39.0317H22.5489V22.8063H25.4901V24.5081C25.4901 25.5684 26.58 26.2798 27.5511 25.8554C33.0036 23.4658 39.2156 27.4643 39.2156 33.4925V39.0317Z" fill="#FFA132"/>
<path d="M12.2547 8.0271C9.82231 8.0271 7.84326 10.0061 7.84326 12.4385C7.84326 14.8715 9.82231 16.8505 12.2547 16.8505C14.6876 16.8505 16.6667 14.8715 16.6667 12.4385C16.6667 10.0061 14.6876 8.0271 12.2547 8.0271ZM12.2547 13.9094C11.4439 13.9094 10.7844 13.2499 10.7844 12.4385C10.7844 11.6277 11.4439 10.9682 12.2547 10.9682C13.0661 10.9682 13.7255 11.6277 13.7255 12.4385C13.7255 13.2499 13.0661 13.9094 12.2547 13.9094Z" fill="#FFA132"/>
</svg>
